<?xml version="1.0" standalone="no"?>
<!DOCTYPE svg PUBLIC "-//W3C//DTD SVG 20010904//EN"
 "http://www.w3.org/TR/2001/REC-SVG-20010904/DTD/svg10.dtd">
<svg version="1.0" xmlns="http://www.w3.org/2000/svg"
 width="1331.000000pt" height="1331.000000pt" viewBox="0 0 1331.000000 1331.000000"
 preserveAspectRatio="xMidYMid meet">
<metadata>
Created by potrace 1.14, written by Peter Selinger 2001-2017
</metadata>
<g transform="translate(0.000000,1331.000000) scale(0.100000,-0.100000)"
fill="#000000" stroke="none">
<path d="M9735 11790 c-129 -22 -229 -57 -390 -135 -268 -130 -597 -369 -953
-691 -125 -113 -575 -564 -717 -718 -61 -66 -137 -149 -170 -184 -33 -35 -71
-77 -85 -92 -19 -21 -66 -43 -184 -85 -442 -157 -855 -373 -1221 -638 -63 -46
-294 -227 -321 -252 -6 -5 -44 -39 -85 -75 -190 -168 -465 -460 -636 -676
l-72 -90 -68 -13 c-273 -49 -645 -143 -918 -231 -820 -265 -1466 -647 -1828
-1081 -73 -87 -84 -106 -85 -141 -3 -59 52 -318 95 -452 20 -64 35 -118 32
-120 -2 -2 -71 -38 -154 -80 -722 -365 -1197 -728 -1509 -1151 -36 -49 -71
-95 -76 -102 -5 -6 -19 -29 -31 -50 -12 -21 -25 -42 -29 -48 -21 -28 -93 -173
-132 -265 -51 -121 -105 -280 -122 -365 -2 -5 -8 -35 -14 -65 -17 -81 -22
-110 -28 -160 -3 -25 -7 -51 -10 -59 -23 -70 -23 -631 0 -756 2 -11 7 -51 12
-90 4 -38 8 -73 10 -77 1 -5 2 -19 3 -33 1 -21 6 -25 31 -25 29 0 30 2 26 38
-6 59 -17 155 -22 182 -17 106 -24 493 -12 635 31 352 106 620 255 910 154
300 424 608 758 866 117 90 272 196 428 292 87 53 159 97 161 97 2 0 33 16 68
36 82 47 364 193 394 204 21 9 26 4 59 -58 79 -151 186 -262 308 -321 l57 -28
-107 -54 c-91 -45 -279 -149 -348 -192 -10 -7 -67 -45 -125 -86 -396 -279
-670 -646 -885 -1186 -4 -11 -9 -24 -11 -30 -2 -5 -23 -68 -48 -140 -36 -107
-96 -314 -111 -384 -2 -9 -15 -63 -28 -121 -14 -58 -28 -118 -31 -135 -3 -16
-14 -84 -26 -150 -12 -66 -23 -131 -25 -145 -8 -54 -18 -116 -21 -135 -2 -11
-7 -48 -10 -82 l-7 -63 32 0 c28 0 31 3 33 33 0 17 2 37 3 42 1 6 5 35 9 65 4
30 14 96 22 145 9 50 17 104 20 120 3 17 9 48 14 70 5 22 11 56 14 75 3 19 8
46 11 60 6 31 74 311 79 325 1 6 6 24 10 40 31 119 123 390 161 472 8 17 15
34 15 37 0 3 23 54 51 112 204 426 476 740 854 989 63 41 117 75 119 75 3 0
29 14 58 31 29 17 125 67 212 111 155 78 161 80 214 74 66 -8 420 8 772 35
286 21 780 65 845 75 33 5 38 4 28 -7 -7 -7 -13 -27 -13 -44 0 -27 -5 -33 -37
-44 -109 -38 -535 -205 -718 -281 -1145 -477 -1947 -953 -2285 -1358 -101
-119 -154 -207 -191 -315 -118 -339 125 -764 652 -1137 627 -446 1675 -835
2616 -974 318 -47 383 -51 738 -50 336 1 492 10 735 40 1664 207 3873 1211
4749 2159 95 103 103 109 151 111 90 4 327 21 410 29 30 3 84 7 120 10 36 3
81 7 100 10 19 3 55 8 80 10 109 10 342 41 465 61 17 3 46 7 65 10 19 2 82 13
140 24 58 11 116 21 130 24 319 59 664 166 870 271 174 88 175 88 173 121 -1
16 -5 97 -7 179 -7 176 -15 332 -21 395 -3 25 -10 97 -15 160 -107 1136 -466
2348 -943 3180 -187 327 -385 588 -627 830 -253 254 -486 416 -804 562 -162
74 -342 145 -511 200 -149 49 -440 127 -479 129 -12 0 -15 3 -8 6 6 2 12 9 12
15 0 5 37 69 82 141 141 227 325 611 345 716 2 13 8 31 12 40 5 9 16 50 25 90
53 236 35 426 -53 551 -84 120 -249 204 -410 209 -30 1 -57 3 -60 5 -3 2 -51
-5 -106 -14z"/>
</g>
</svg>
